# xmcd
#
# Track frame offsets:
#	150
#	15141
#	29992
#	50169
#	66310
#	83523
#	114109
#	126904
#	141715
#
# Disc length: 2203 seconds
# Revision: 0
# Processed by: cddbd v1.5.2PL0 Copyright (c) Steve Scherf et al.
# Submitted via: dBpowerAMP V12.0
#
DISCID=7d089909
DTITLE=Big Twist and The Mellow Fellows - Big Twist and The Mellow Fellows
DYEAR=1980
DGENRE=Blues
TTITLE0=(It Would Be) You and Me
TTITLE1=Who's Cheating Who
TTITLE2=Till The Morning Comes
TTITLE3=Slave for Love
TTITLE4=(That's The Sound of A) Happy Man
TTITLE5=Turn Back The Hands of Time - Nobody Wants To Lose
TTITLE6=The Sweet Sound Of Rhythm and Blues
TTITLE7=Here in This City
TTITLE8=Children's Blues
EXTD=
EXTT0=
EXTT1=
EXTT2=
EXTT3=
EXTT4=
EXTT5=
EXTT6=
EXTT7=
EXTT8=
PLAYORDER=
